<svg width="230" height="22" viewBox="0 0 230 22" fill="none" xmlns="http://www.w3.org/2000/svg">
<line x1="113" y1="10.4071" x2="230" y2="10.4071" stroke="white" stroke-width="1.18571"/>
<path d="M40.8779 11.4004H41.924C42.5814 11.3904 43.0982 11.2173 43.4745 10.8811C43.8508 10.5449 44.039 10.0908 44.039 9.51882C44.039 8.2343 43.3992 7.59203 42.1197 7.59203C41.5176 7.59203 41.0359 7.76514 40.6746 8.11136C40.3184 8.45256 40.1403 8.90666 40.1403 9.47366H38.7479C38.7479 8.6056 39.064 7.88557 39.6962 7.31355C40.3334 6.73652 41.1413 6.44801 42.1197 6.44801C43.1534 6.44801 43.9637 6.72147 44.5508 7.26839C45.1379 7.81532 45.4314 8.5755 45.4314 9.54893C45.4314 10.0256 45.2758 10.4872 44.9648 10.9338C44.6587 11.3804 44.2397 11.7141 43.7078 11.9348C44.3099 12.1255 44.7741 12.4416 45.1002 12.8832C45.4314 13.3247 45.597 13.8641 45.597 14.5014C45.597 15.4848 45.2758 16.2651 44.6336 16.8421C43.9913 17.4191 43.1559 17.7077 42.1273 17.7077C41.0986 17.7077 40.2607 17.4292 39.6134 16.8722C38.9711 16.3153 38.65 15.5802 38.65 14.667H40.0499C40.0499 15.244 40.2381 15.7056 40.6144 16.0518C40.9908 16.398 41.495 16.5712 42.1273 16.5712C42.7996 16.5712 43.3139 16.3955 43.6702 16.0443C44.0264 15.6931 44.2046 15.1888 44.2046 14.5315C44.2046 13.8942 44.0089 13.405 43.6175 13.0638C43.2261 12.7226 42.6616 12.547 41.924 12.5369H40.8779V11.4004ZM52.973 6.59101V7.77267H52.7171C51.6332 7.79274 50.7702 8.11387 50.1279 8.73606C49.4857 9.35825 49.1144 10.2338 49.014 11.3628C49.591 10.7005 50.3788 10.3693 51.3773 10.3693C52.3307 10.3693 53.0909 10.7055 53.6579 11.3779C54.2299 12.0502 54.5159 12.9183 54.5159 13.982C54.5159 15.111 54.2073 16.0142 53.5901 16.6916C52.978 17.369 52.1551 17.7077 51.1214 17.7077C50.0727 17.7077 49.2222 17.3062 48.5699 16.5034C47.9176 15.6956 47.5915 14.6569 47.5915 13.3874V12.8531C47.5915 10.836 48.0205 9.29553 48.8785 8.23179C49.7416 7.16302 51.0236 6.6161 52.7246 6.59101H52.973ZM51.144 11.5284C50.6673 11.5284 50.2283 11.6714 49.8269 11.9574C49.4255 12.2434 49.147 12.6022 48.9914 13.0337V13.5455C48.9914 14.4487 49.1946 15.1762 49.6011 15.7282C50.0075 16.2801 50.5143 16.5561 51.1214 16.5561C51.7486 16.5561 52.2404 16.3253 52.5966 15.8637C52.9579 15.402 53.1385 14.7974 53.1385 14.0498C53.1385 13.2971 52.9554 12.69 52.5891 12.2284C52.2278 11.7617 51.7461 11.5284 51.144 11.5284ZM63.0359 12.8832C63.0359 14.5139 62.7574 15.7257 62.2005 16.5185C61.6435 17.3113 60.7729 17.7077 59.5888 17.7077C58.4196 17.7077 57.5541 17.3213 56.9921 16.5486C56.4301 15.7708 56.1391 14.6118 56.119 13.0713V11.2123C56.119 9.60161 56.3975 8.4049 56.9545 7.62214C57.5114 6.83938 58.3845 6.44801 59.5737 6.44801C60.7529 6.44801 61.6209 6.82684 62.1779 7.58451C62.7348 8.33716 63.0208 9.50126 63.0359 11.0768V12.8832ZM61.6435 10.979C61.6435 9.79981 61.4779 8.94179 61.1467 8.4049C60.8156 7.86299 60.2912 7.59203 59.5737 7.59203C58.8612 7.59203 58.3419 7.86048 58.0157 8.39737C57.6896 8.93426 57.5215 9.75967 57.5114 10.8736V13.1014C57.5114 14.2856 57.682 15.1612 58.0232 15.7282C58.3695 16.2902 58.8913 16.5712 59.5888 16.5712C60.2762 16.5712 60.7855 16.3052 61.1166 15.7733C61.4528 15.2415 61.6284 14.4035 61.6435 13.2595V10.979ZM72.6322 15.6379L75.7632 6.59854H77.3438L73.2795 17.5571H72L67.9432 6.59854H69.5162L72.6322 15.6379ZM80.1135 17.5571H78.7211V9.41345H80.1135V17.5571ZM78.6082 7.25334C78.6082 7.02755 78.676 6.83687 78.8115 6.68133C78.9519 6.52578 79.1577 6.44801 79.4286 6.44801C79.6996 6.44801 79.9053 6.52578 80.0458 6.68133C80.1863 6.83687 80.2565 7.02755 80.2565 7.25334C80.2565 7.47914 80.1863 7.6673 80.0458 7.81783C79.9053 7.96836 79.6996 8.04362 79.4286 8.04362C79.1577 8.04362 78.9519 7.96836 78.8115 7.81783C78.676 7.6673 78.6082 7.47914 78.6082 7.25334ZM85.7283 17.7077C84.6244 17.7077 83.7263 17.3464 83.0338 16.6238C82.3414 15.8963 81.9952 14.9254 81.9952 13.7111V13.4552C81.9952 12.6473 82.1482 11.9273 82.4543 11.2951C82.7654 10.6578 83.1969 10.1611 83.7488 9.80483C84.3058 9.44355 84.9079 9.26292 85.5552 9.26292C86.6139 9.26292 87.4368 9.61165 88.0239 10.3091C88.611 11.0066 88.9045 12.0051 88.9045 13.3047V13.8842H83.3876C83.4076 14.687 83.641 15.3368 84.0875 15.8336C84.5391 16.3253 85.1111 16.5712 85.8036 16.5712C86.2953 16.5712 86.7118 16.4708 87.053 16.2701C87.3942 16.0694 87.6927 15.8035 87.9486 15.4723L88.7991 16.1346C88.1167 17.1833 87.0931 17.7077 85.7283 17.7077ZM85.5552 10.4069C84.9932 10.4069 84.5216 10.6127 84.1402 11.0241C83.7589 11.4306 83.523 12.0026 83.4327 12.7402H87.5121V12.6348C87.4719 11.9273 87.2813 11.3804 86.9401 10.994C86.5989 10.6026 86.1372 10.4069 85.5552 10.4069ZM97.7331 15.6379L99.2986 9.41345H100.691L98.3202 17.5571H97.1912L95.2117 11.3854L93.2849 17.5571H92.1559L89.7926 9.41345H91.1775L92.7806 15.5099L94.6773 9.41345H95.7988L97.7331 15.6379Z" fill="white"/>
<path d="M16.6 0C8.3 0 0 1.95272 0 5.7433V12.6353C0 16.1961 7.58857 18.1488 15.4143 18.3786V20.6759C15.4143 21.1354 15.6514 21.5948 16.1257 21.7097C16.2443 21.8246 16.4814 21.8246 16.6 21.8246C16.9557 21.8246 17.1929 21.7097 17.43 21.48L24.5443 14.588C25.0186 14.1285 25.0186 13.4393 24.5443 12.9799L17.43 6.0879C17.0743 5.7433 16.6 5.62844 16.1257 5.85817C15.6514 5.97304 15.4143 6.4325 15.4143 6.89196V9.18929C7.23286 8.95955 2.37143 6.89196 2.37143 5.7433C2.37143 4.47978 7.82571 2.29732 16.6 2.29732C25.3743 2.29732 30.8286 4.47978 30.8286 5.7433C30.8286 6.4325 31.3029 6.89196 32.0143 6.89196C32.7257 6.89196 33.2 6.4325 33.2 5.7433C33.2 1.95272 24.9 0 16.6 0Z" fill="white"/>
</svg>
