<svg width="206" height="41" viewBox="0 0 206 41" fill="none" xmlns="http://www.w3.org/2000/svg">
<path d="M20.0287 14.4998L12.5715 18.2284L20.0287 21.957L27.4858 18.2284L20.0287 14.4998Z" stroke="#4E4E4E" stroke-width="2.48571" stroke-miterlimit="10" stroke-linecap="round" stroke-linejoin="round"/>
<path d="M12.5715 18.2284V26.9284L20.0287 30.657L27.4858 26.9284V18.2284" stroke="#4E4E4E" stroke-width="2.48571" stroke-miterlimit="10" stroke-linecap="round" stroke-linejoin="round"/>
<path d="M20.0286 21.957V30.657" stroke="#4E4E4E" stroke-width="2.48571" stroke-miterlimit="10" stroke-linecap="round" stroke-linejoin="round"/>
<path d="M6.48146 13.5056C4.86575 15.9913 3.87146 18.9742 3.87146 22.2056C3.87146 31.0299 11.08 38.1142 20.0286 38.1142C28.9772 38.1142 36.1857 31.0299 36.1857 22.2056C36.1857 13.3813 28.9772 6.17275 20.0286 6.17275C16.1757 6.17275 12.5715 7.53989 9.83717 9.77704L12.6957 3.31418" stroke="#4E4E4E" stroke-width="2.48571" stroke-miterlimit="10" stroke-linecap="round" stroke-linejoin="round"/>
<path d="M57.88 28.6806L62.3708 14.8562H65.7449L59.385 32.5281H56.4114L50.0757 14.8562H53.4377L57.88 28.6806ZM70.5998 32.5281H67.6505V19.3956H70.5998V32.5281ZM67.4684 15.985C67.4684 15.5319 67.61 15.1556 67.8932 14.8562C68.1845 14.5568 68.5972 14.4072 69.1312 14.4072C69.6653 14.4072 70.0779 14.5568 70.3692 14.8562C70.6605 15.1556 70.8062 15.5319 70.8062 15.985C70.8062 16.43 70.6605 16.8022 70.3692 17.1016C70.0779 17.3929 69.6653 17.5386 69.1312 17.5386C68.5972 17.5386 68.1845 17.3929 67.8932 17.1016C67.61 16.8022 67.4684 16.43 67.4684 15.985ZM80.6981 22.09C80.3097 22.0253 79.9091 21.993 79.4965 21.993C78.1452 21.993 77.2349 22.5108 76.7656 23.5465V32.5281H73.8162V19.3956H76.6321L76.7049 20.8642C77.4169 19.7233 78.4041 19.1528 79.6664 19.1528C80.0871 19.1528 80.4351 19.2095 80.7102 19.3227L80.6981 22.09ZM85.3345 19.3956L85.4195 20.7671C86.3419 19.6909 87.6042 19.1528 89.2063 19.1528C90.9621 19.1528 92.1637 19.8244 92.8111 21.1676C93.7659 19.8244 95.1091 19.1528 96.8406 19.1528C98.289 19.1528 99.3652 19.5534 100.069 20.3544C100.781 21.1555 101.145 22.3368 101.162 23.8985V32.5281H98.2121V23.9835C98.2121 23.15 98.0301 22.5391 97.666 22.1507C97.3019 21.7623 96.699 21.5681 95.8575 21.5681C95.1859 21.5681 94.6357 21.7502 94.2068 22.1143C93.7861 22.4703 93.4907 22.9397 93.3208 23.5222L93.333 32.5281H90.3836V23.8864C90.3431 22.3409 89.5542 21.5681 88.0168 21.5681C86.8355 21.5681 85.998 22.0496 85.5044 23.0125V32.5281H82.5551V19.3956H85.3345ZM103.638 25.8405C103.638 24.5539 103.892 23.3968 104.402 22.3692C104.912 21.3335 105.628 20.5405 106.55 19.9903C107.473 19.432 108.533 19.1528 109.73 19.1528C111.502 19.1528 112.939 19.7233 114.039 20.8642C115.148 22.0051 115.746 23.5182 115.835 25.4035L115.848 26.0953C115.848 27.39 115.597 28.5471 115.095 29.5666C114.602 30.5861 113.889 31.3751 112.959 31.9334C112.037 32.4917 110.968 32.7709 109.755 32.7709C107.902 32.7709 106.417 32.1559 105.3 30.926C104.192 29.688 103.638 28.0414 103.638 25.9861V25.8405ZM106.587 26.0953C106.587 27.4466 106.866 28.5066 107.424 29.2753C107.983 30.0359 108.759 30.4162 109.755 30.4162C110.75 30.4162 111.523 30.0278 112.073 29.251C112.631 28.4743 112.91 27.3374 112.91 25.8405C112.91 24.5135 112.623 23.4616 112.049 22.6848C111.482 21.908 110.71 21.5196 109.73 21.5196C108.768 21.5196 108.003 21.9039 107.436 22.6726C106.87 23.4332 106.587 24.5741 106.587 26.0953Z" fill="#4E4E4E"/>
</svg>
